<svg xmlns="http://www.w3.org/2000/svg" width="512" height="512" viewBox="0 0 512 512"><g><path d="M6.962 266.753c22.59-5.64 53.305-13.324 107.118-14.753-1.487-2.974-2.83-6.053-4.02-9.228-20.94-.182-85.43 2.792-107.52 8.25-.125.04-.26.048-.393.048-.74 0-1.42-.508-1.602-1.256-.21-.873.326-1.774 1.208-1.995 21.89-5.41 84.825-8.414 107.118-8.356-5.016-14.753-7.232-31.655-7.232-50.523 0-33.515 10.437-46.158 24.46-64.02-10.724-38.196 3.847-64.306 3.847-64.306s22.533-4.67 65.132 25.832c23.09-9.89 84.647-10.714 113.77-2.196 17.88-11.818 50.57-28.585 63.77-23.895 3.568 5.755 11.262 22.513 4.662 59.348 4.488 8.077 27.76 25.286 27.855 73.928-.384 17.94-2.245 33.085-5.698 45.9 55.54-.47 88.212 4.115 110.715 8.26.883.18 1.478 1.035 1.324 1.927-.153.787-.844 1.353-1.61 1.353-.116 0-.212-.01-.327-.02-22.467-4.162-55.195-8.728-111.062-8.22-.98 3.252-2.072 6.34-3.262 9.286 19.013.633 71.233 2.667 113.823 15.693.882.268 1.36 1.188 1.093 2.07-.21.7-.863 1.16-1.573 1.16-.153 0-.326-.018-.48-.075-43.184-13.2-96.537-15.012-114.282-15.598-15.444 33.93-47.118 46.59-98.322 51.856 16.595 10.446 21.353 23.548 21.353 59.003 0 35.453-.48 40.21-.365 48.363.173 13.382 19.78 19.788 19.05 24.095-.728 4.3-16.402 3.607-23.73 1.047-20.758-7.232-18.687-24.5-18.687-24.5l-.69-47.404s1.42-25.516-8-25.516v77.592c0 16.863 11.8 21.986 11.8 28.22 0 10.716-21.564-1.015-28.203-7.702-10.134-10.168-8.982-31.73-8.733-48.785.23-16.47-.153-52.49-.153-52.49l-6.878.145s2.82 78.686-3.626 93.025c-8.335 18.408-33.477 24.74-33.477 16.355 0-5.64 6.195-3.846 9.62-16.488 2.925-10.754 1.928-90.975 1.928-90.975s-8.057 4.767-8.057 19.788c0 6.877-.19 46.158-.19 57.852 0 14.705-20.884 23.078-30.918 23.078-5.084 0-11.405-.248-11.405-2.943 0-6.8 19.1-10.793 19.1-24.94 0-12.27-.27-43.827-.27-43.827s-9.63 1.648-23.367 1.648c-34.628 0-45.583-22.1-50.792-34.465-6.782-16.104-15.578-23.672-24.92-29.716-5.737-3.712-7.06-8.096-.423-9.343 30.657-5.773 38.494 34.764 58.964 41.22 14.608 4.614 33.39 2.618 42.733-3.425 1.238-12.385 10.16-23.09 17.593-28.73-52.067-4.997-82.936-23.078-98.936-52.144-54.466 1.306-85.372 9.037-108.03 14.696-1.65.413-3.26.815-4.814 1.21-.134.027-.27.037-.403.037-.74 0-1.41-.5-1.602-1.247-.22-.882.327-1.784 1.21-2.005 1.56-.383 3.162-.775 4.802-1.197z"/></g></svg>